<?xml version="1.0" standalone="no"?>
<!DOCTYPE svg PUBLIC "-//W3C//DTD SVG 20010904//EN"
 "http://www.w3.org/TR/2001/REC-SVG-20010904/DTD/svg10.dtd">
<svg version="1.0" xmlns="http://www.w3.org/2000/svg"
 width="956.000000pt" height="571.000000pt" viewBox="0 0 956.000000 571.000000"
 preserveAspectRatio="xMidYMid meet">

<g transform="translate(0.000000,571.000000) scale(0.100000,-0.100000)"
fill="#000000" stroke="none">
<path d="M3919 5133 c-1 -4 -2 -23 -3 -42 -1 -29 -6 -36 -31 -42 -28 -8 -38
-3 -48 25 -2 5 -11 7 -20 3 -24 -9 -26 -204 -2 -214 24 -9 29 3 33 78 3 42 9
69 16 69 6 0 21 3 33 6 21 6 22 3 25 -67 3 -68 5 -74 25 -77 21 -3 22 1 25 70
l3 73 58 9 c71 11 70 29 -3 36 -50 5 -54 7 -65 40 -10 31 -43 55 -46 33z"/>
<path d="M4452 5118 c3 -7 20 -14 39 -16 63 -5 67 -11 29 -43 -19 -16 -42 -29
-52 -29 -9 0 -19 -4 -23 -9 -8 -14 27 -31 67 -32 18 -1 0 -6 -40 -11 l-73 -10
7 -54 c14 -116 28 -169 47 -172 12 -3 19 5 23 27 9 44 34 40 34 -4 0 -28 4
-35 20 -35 14 0 21 9 26 35 5 29 11 35 31 35 21 0 23 -3 17 -22 -14 -42 -10
-63 10 -63 25 0 56 95 56 172 0 57 -21 82 -70 84 -14 0 -19 3 -12 6 19 8 14
33 -7 33 -33 0 -36 22 -8 42 16 11 27 29 27 42 0 20 -6 24 -52 30 -79 9 -100
8 -96 -6z m54 -193 c-28 -30 -56 -33 -56 -6 0 19 15 26 62 30 14 1 13 -3 -6
-24z m98 9 c12 -4 16 -20 16 -55 0 -51 -11 -60 -54 -43 -23 9 -20 34 4 34 11
0 20 7 20 15 0 8 -8 15 -19 15 -10 0 -21 9 -24 20 -4 16 0 20 18 20 13 0 30
-3 39 -6z m-106 -81 c-2 -10 -10 -18 -18 -18 -8 0 -16 8 -18 18 -2 12 3 17 18
17 15 0 20 -5 18 -17z"/>
<path d="M5560 5103 c0 -38 -10 -51 -44 -55 -45 -5 -44 -26 1 -30 37 -3 38 -4
41 -47 6 -79 -1 -90 -60 -93 -41 -2 -54 -7 -56 -20 -3 -16 5 -18 57 -18 l61 0
0 -87 c0 -106 7 -135 29 -131 13 3 17 22 21 105 3 56 9 105 13 110 10 9 105 8
115 -1 9 -10 -17 -77 -45 -114 -22 -29 -22 -33 -7 -39 26 -10 47 8 76 68 50
101 34 129 -75 129 -29 0 -58 4 -65 9 -18 11 -12 123 7 129 10 3 12 -4 8 -34
-13 -88 -13 -89 8 -89 19 0 30 26 49 112 l7 32 -50 7 -51 7 0 38 c0 32 -3 39
-20 39 -15 0 -20 -7 -20 -27z"/>
<path d="M5730 5107 c0 -31 36 -65 52 -49 8 8 8 19 -2 41 -15 38 -50 43 -50 8z"/>
<path d="M3191 5102 c-17 -12 -4 -20 47 -28 48 -7 52 -22 23 -70 -16 -27 -23
-30 -55 -26 -37 4 -46 -7 -22 -27 18 -15 123 -37 133 -28 4 4 0 14 -8 23 -14
13 -13 20 7 62 24 49 30 77 16 86 -17 10 -128 16 -141 8z"/>
<path d="M4840 5005 c0 -104 0 -106 22 -103 20 3 22 8 20 50 -4 54 2 57 103
67 48 5 60 10 63 25 4 16 -1 18 -50 12 -29 -4 -65 -9 -80 -12 -24 -5 -27 -2
-30 28 -2 25 -8 34 -25 36 -23 3 -23 2 -23 -103z"/>
<path d="M3375 5040 c-10 -16 17 -21 100 -18 52 2 80 7 83 16 5 15 -173 17
-183 2z"/>
<path d="M4290 5014 c0 -18 24 -44 40 -44 21 0 24 8 14 34 -6 15 -54 24 -54
10z"/>
<path d="M3399 4993 c-3 -32 1 -87 12 -155 8 -51 15 -69 29 -73 15 -5 20 -18
22 -63 3 -50 6 -57 26 -60 18 -3 22 1 22 22 l0 26 38 -16 c48 -22 87 -24 87
-4 0 8 -21 22 -50 33 -27 10 -56 25 -62 34 -8 10 -13 47 -13 90 0 67 2 73 20
73 30 0 34 -23 16 -77 -20 -59 -20 -63 4 -63 41 0 80 111 53 150 -14 19 -23
21 -87 18 -64 -3 -71 -1 -74 17 -7 51 -13 65 -27 65 -8 0 -16 -8 -16 -17z m71
-107 c0 -3 -4 -8 -10 -11 -5 -3 -10 -1 -10 4 0 6 5 11 10 11 6 0 10 -2 10 -4z"/>
<path d="M4920 4925 l0 -54 -40 -11 c-25 -7 -40 -17 -40 -27 0 -12 7 -14 36
-10 l36 6 -3 -97 c-4 -94 -3 -97 19 -100 20 -3 22 0 22 52 0 30 5 58 10 61 6
4 26 -7 46 -24 31 -28 84 -43 84 -23 0 10 -91 87 -112 95 -36 13 -15 44 32 49
24 2 36 9 38 21 3 14 -4 17 -37 17 l-41 0 0 50 c0 47 -2 50 -25 50 -24 0 -25
-3 -25 -55z"/>
<path d="M5120 4951 c0 -6 -7 -11 -15 -11 -16 0 -19 -16 -15 -100 3 -87 18
-106 85 -113 31 -3 63 -3 70 -1 13 5 33 209 21 221 -12 12 -146 16 -146 4z
m89 -30 c11 -7 13 -23 8 -68 -8 -79 -15 -93 -42 -93 -31 0 -33 3 -41 93 l-7
77 34 0 c19 0 40 -4 48 -9z"/>
<path d="M3152 4889 c-36 -14 -16 -32 29 -25 l39 6 1 -72 c1 -121 10 -162 37
-166 23 -4 23 -3 17 85 -3 48 -8 103 -11 121 -5 30 -3 32 26 32 33 0 37 -12
15 -50 -20 -35 -18 -50 5 -50 42 0 81 110 44 124 -24 9 -176 6 -202 -5z"/>
<path d="M4297 4883 c-12 -11 -7 -23 9 -23 12 0 15 -6 10 -22 -18 -64 -19 -78
-2 -78 25 0 19 -38 -11 -66 -14 -13 -24 -26 -21 -29 10 -11 458 -18 458 -8 0
15 -36 23 -110 23 -36 0 -109 3 -162 7 l-97 6 6 43 c4 32 2 44 -7 44 -9 0 -11
12 -7 45 6 42 5 46 -19 55 -30 12 -38 12 -47 3z"/>
<path d="M3851 4846 c-47 -7 -76 -16 -79 -25 -4 -12 10 -13 84 -7 49 3 128 9
177 13 64 4 87 9 87 19 0 17 -156 17 -269 0z"/>
<path d="M3855 4736 c3 -17 9 -52 12 -78 5 -41 9 -47 36 -52 55 -11 117 -7
117 8 0 7 9 16 20 19 17 4 20 14 20 61 0 70 -11 77 -125 75 l-87 -2 7 -31z
m131 4 c22 0 24 -4 24 -55 l0 -55 -32 0 c-48 0 -58 11 -67 69 l-8 53 30 -6
c16 -3 40 -6 53 -6z"/>
<path d="M5350 3851 c0 -5 5 -13 10 -16 6 -3 10 -2 10 4 0 5 -4 13 -10 16 -5
3 -10 2 -10 -4z"/>
<path d="M4920 3830 c20 -13 180 -13 180 0 0 6 -39 10 -97 10 -67 0 -93 -3
-83 -10z"/>
<path d="M3607 3823 c-4 -3 -7 -21 -7 -38 0 -18 -3 -47 -6 -64 -6 -28 -10 -31
-44 -31 -21 0 -45 -3 -54 -6 -29 -11 -16 -21 27 -20 l42 1 1 -45 c1 -78 7 -87
13 -20 l6 65 73 3 c86 3 96 20 15 24 l-58 3 3 68 c4 66 2 74 -11 60z"/>
<path d="M3141 3801 c-6 -11 -10 -71 -10 -138 2 -141 16 -109 18 40 1 97 1 97
26 97 26 0 31 -16 16 -55 -5 -12 -3 -30 5 -47 19 -37 18 -44 -8 -53 -20 -6
-21 -8 -5 -12 36 -9 50 5 41 40 -4 17 -8 57 -8 87 -1 54 -1 55 -33 58 -23 2
-34 -2 -42 -17z"/>
<path d="M3867 3813 c-11 -18 -19 -138 -9 -128 5 6 13 38 17 73 6 56 4 75 -8
55z"/>
<path d="M4217 3813 c-11 -18 -19 -138 -9 -128 5 6 13 38 17 73 6 56 4 75 -8
55z"/>
<path d="M4580 3800 c0 -5 23 -10 50 -10 28 0 50 -3 50 -6 0 -3 -27 -44 -60
-91 -33 -47 -57 -90 -54 -94 5 -9 52 54 112 148 23 35 32 42 60 43 17 0 32 5
32 10 0 6 -38 10 -95 10 -57 0 -95 -4 -95 -10z"/>
<path d="M4906 3703 c-4 -69 -3 -110 4 -117 7 -7 10 7 10 46 0 30 3 83 6 117
4 38 3 61 -3 61 -6 0 -13 -47 -17 -107z"/>
<path d="M4970 3755 c0 -48 2 -55 20 -55 14 0 20 -7 20 -22 0 -13 4 -34 8 -48
6 -21 8 -19 12 20 4 40 8 45 33 48 24 3 27 7 27 42 0 42 -10 50 -66 50 -19 0
-34 5 -34 10 0 6 -4 10 -10 10 -5 0 -10 -25 -10 -55z m105 5 c4 -7 -8 -8 -37
-4 -57 9 -61 14 -10 14 22 0 44 -5 47 -10z m0 -30 c-3 -5 -24 -10 -46 -10 -21
0 -39 5 -39 10 0 6 21 10 46 10 27 0 43 -4 39 -10z"/>
<path d="M5290 3800 c-10 -7 12 -10 73 -10 51 0 87 4 87 10 0 13 -140 13 -160
0z"/>
<path d="M3273 3789 c-9 -9 -13 -48 -13 -122 l0 -109 31 6 c17 3 45 6 61 6
l30 0 -4 104 c-1 57 -6 107 -10 111 -14 14 -83 17 -95 4z m71 -15 c11 -4 16
-19 16 -43 l0 -37 -40 4 c-38 4 -40 6 -40 36 0 18 3 36 7 39 8 9 36 9 57 1z
m14 -136 c-3 -41 -4 -43 -39 -46 -31 -3 -37 1 -43 20 -14 54 -6 64 57 67 27 1
28 -1 25 -41z"/>
<path d="M3910 3780 c0 -5 16 -10 36 -10 32 0 35 -2 29 -22 -4 -13 -27 -59
-51 -102 -25 -44 -43 -84 -41 -90 2 -6 15 8 28 32 13 23 27 42 31 42 4 0 37
-16 73 -36 50 -27 65 -32 65 -20 0 8 -19 24 -42 34 -24 11 -51 26 -62 34 -18
14 -18 16 3 72 11 31 21 61 21 66 0 6 -20 10 -45 10 -25 0 -45 -4 -45 -10z"/>
<path d="M4260 3780 c0 -5 16 -10 36 -10 32 0 35 -2 29 -22 -4 -13 -27 -59
-51 -102 -25 -44 -43 -84 -41 -90 2 -6 15 8 28 32 13 23 27 42 31 42 4 0 37
-16 73 -36 50 -27 65 -32 65 -20 0 8 -19 24 -42 34 -24 11 -51 26 -62 34 -18
14 -18 16 3 72 11 31 21 61 21 66 0 6 -20 10 -45 10 -25 0 -45 -4 -45 -10z"/>
<path d="M5660 3780 c8 -5 38 -10 67 -10 l52 0 -6 -52 c-7 -58 -16 -69 -53
-66 -23 3 -25 7 -25 50 0 25 -3 49 -7 54 -5 4 -8 -8 -8 -27 0 -58 -10 -79 -37
-79 -13 0 -21 -4 -18 -10 3 -5 15 -10 26 -10 16 0 19 -7 19 -45 0 -25 5 -45
10 -45 6 0 10 20 10 45 l0 45 40 0 c40 0 40 0 40 -37 0 -21 5 -45 10 -53 7
-11 10 0 10 38 0 48 2 52 24 52 35 0 42 18 9 22 -26 3 -28 6 -31 58 -3 43 1
57 14 67 15 11 3 13 -72 13 -61 0 -84 -3 -74 -10z"/>
<path d="M5387 3763 c-13 -14 -19 -14 -32 -3 -20 16 -32 5 -16 -14 7 -8 10
-24 6 -36 -4 -11 -2 -20 4 -20 6 0 11 5 11 11 0 6 9 8 21 4 18 -6 20 -4 14 14
-4 13 -1 28 6 37 17 21 6 27 -14 7z"/>
<path d="M3535 3758 c-4 -10 -4 -26 0 -35 8 -17 8 -17 12 0 3 9 3 25 0 35 -4
16 -4 16 -12 0z"/>
<path d="M3665 3750 c-9 -27 6 -50 16 -24 4 10 8 25 8 32 1 20 -17 14 -24 -8z"/>
<path d="M5448 3723 c-6 -28 -12 -33 -35 -33 -16 0 -45 -3 -65 -6 -36 -6 -38
-5 -44 25 -7 31 -24 44 -24 17 0 -37 20 -66 45 -66 16 0 25 -6 25 -15 0 -9 -9
-15 -24 -15 -48 0 -56 -9 -55 -59 1 -45 1 -45 8 -11 9 47 18 60 40 60 13 0 20
-10 25 -30 5 -25 10 -30 36 -30 23 0 30 4 30 20 0 11 -4 20 -10 20 -5 0 -10
-4 -10 -10 0 -5 -7 -10 -16 -10 -9 0 -14 7 -12 18 3 13 13 17 48 17 45 0 45 0
48 -38 4 -49 22 -38 22 14 l0 39 -49 0 c-73 0 -87 33 -16 34 38 1 50 20 43 67
-3 21 -4 20 -10 -8z"/>
<path d="M4670 3620 c0 -53 4 -90 10 -90 6 0 10 37 10 90 0 53 -4 90 -10 90
-6 0 -10 -37 -10 -90z"/>
<path d="M4750 3673 c0 -16 25 -73 32 -73 11 0 10 11 -3 49 -10 27 -29 44 -29
24z"/>
<path d="M5070 3668 c0 -18 18 -34 28 -24 3 4 -2 14 -11 23 -16 16 -17 16 -17
1z"/>
<path d="M4960 3651 c-7 -15 -7 -21 0 -21 12 0 25 28 17 36 -3 3 -10 -4 -17
-15z"/>
<path d="M3638 3644 c-10 -10 -10 -76 0 -92 11 -17 112 -29 112 -13 0 6 -11
11 -24 11 -54 0 -75 16 -78 60 -2 23 -6 38 -10 34z"/>
<path d="M5050 3595 c0 -8 5 -15 10 -15 6 0 10 7 10 15 0 8 -4 15 -10 15 -5 0
-10 -7 -10 -15z"/>
<path d="M4940 3569 c0 -11 5 -17 10 -14 6 3 10 13 10 21 0 8 -4 14 -10 14 -5
0 -10 -9 -10 -21z"/>
<path d="M4982 3563 c3 -27 6 -28 61 -31 35 -2 57 1 57 8 0 5 -22 10 -50 10
-43 0 -50 3 -50 20 0 11 -5 20 -11 20 -6 0 -9 -12 -7 -27z"/>
<path d="M5130 3573 c0 -12 5 -25 10 -28 13 -8 13 15 0 35 -8 12 -10 11 -10
-7z"/>
<path d="M5425 3333 c-5 -16 -15 -23 -32 -23 -13 0 -21 -4 -18 -10 3 -5 15
-10 26 -10 10 0 19 -7 19 -15 0 -8 -9 -15 -20 -15 -11 0 -20 -4 -20 -10 0 -5
9 -10 20 -10 13 0 20 -7 20 -20 0 -16 -7 -20 -35 -20 -19 0 -35 -4 -35 -10 0
-12 67 -12 125 -1 l40 7 -37 7 c-39 8 -49 23 -23 33 8 4 15 10 15 15 0 5 -7 9
-15 9 -8 0 -15 7 -15 15 0 8 7 15 15 15 8 0 15 5 15 10 0 6 -6 10 -14 10 -8 0
-17 10 -19 23 l-4 22 -8 -22z"/>
<path d="M5020 3316 c0 -8 -13 -17 -30 -21 -38 -8 -40 -26 -1 -19 28 6 28 5
34 -48 6 -63 -6 -78 -64 -78 -21 0 -40 -4 -43 -9 -3 -5 15 -6 39 -3 51 5 53 1
30 -55 -17 -40 -19 -53 -7 -53 5 0 14 18 21 41 15 48 19 47 30 -12 l9 -44 1
57 c1 31 6 60 13 64 7 4 8 3 4 -4 -7 -11 60 -82 77 -82 17 0 4 21 -28 46 -41
31 -44 44 -10 44 40 0 29 18 -12 22 l-38 3 -3 58 c-3 55 -2 57 22 57 14 0 28
5 31 10 4 6 -7 10 -24 10 -21 0 -31 5 -31 15 0 8 -4 15 -10 15 -5 0 -10 -6
-10 -14z"/>
<path d="M5685 3320 c-4 -6 10 -10 34 -10 22 0 43 5 46 10 4 6 -10 10 -34 10
-22 0 -43 -4 -46 -10z"/>
<path d="M3185 3304 c-4 -12 -21 -26 -38 -32 l-32 -10 31 -1 c25 -1 33 -6 38
-26 9 -34 25 -32 23 3 -2 25 1 27 39 30 36 3 42 0 48 -20 l7 -23 9 23 c6 15
18 22 35 22 15 0 24 4 20 10 -3 6 -17 10 -31 10 -16 0 -24 6 -24 18 -1 16 -1
16 -14 0 -9 -12 -27 -18 -54 -18 -30 0 -42 4 -45 18 -4 15 -6 14 -12 -4z"/>
<path d="M3682 3272 l5 -50 -44 -7 c-55 -8 -56 -23 0 -27 l42 -3 5 -80 c6 -93
18 -82 22 20 3 68 4 70 31 73 36 4 35 22 -2 22 -31 0 -41 14 -41 60 0 16 -5
32 -11 36 -9 5 -10 -7 -7 -44z"/>
<path d="M3966 3312 c-3 -5 11 -12 31 -15 35 -6 52 -3 41 8 -10 11 -66 16 -72
7z"/>
<path d="M4316 3312 c-3 -5 11 -12 31 -15 35 -6 52 -3 41 8 -10 11 -66 16 -72
7z"/>
<path d="M4560 3310 c-31 -7 -29 -8 23 -9 32 0 57 3 57 9 0 11 -27 11 -80 0z"/>
<path d="M3860 3281 c0 -11 5 -23 10 -26 6 -3 10 3 10 14 0 11 -4 23 -10 26
-5 3 -10 -3 -10 -14z"/>
<path d="M4210 3281 c0 -11 5 -23 10 -26 6 -3 10 3 10 14 0 11 -4 23 -10 26
-5 3 -10 -3 -10 -14z"/>
<path d="M5718 3278 c-2 -19 -10 -24 -45 -26 -24 -2 -43 -8 -43 -14 0 -7 16
-8 45 -4 l45 7 0 -41 c0 -30 -5 -42 -17 -47 -26 -9 -33 -23 -33 -66 0 -54 15
-77 50 -77 49 0 79 20 86 55 10 57 2 78 -33 89 -27 7 -33 14 -33 37 0 36 4 36
47 3 43 -32 58 -22 18 11 l-30 24 33 1 c50 0 38 19 -15 22 -41 3 -48 6 -51 26
-2 12 -7 22 -12 22 -5 0 -10 -10 -12 -22z m70 -172 c2 -15 1 -39 -3 -53 -5
-21 -10 -24 -48 -21 -41 3 -42 4 -45 42 -5 59 2 68 50 64 39 -3 43 -6 46 -32z"/>
<path d="M5710 3090 c0 -5 11 -10 24 -10 14 0 28 5 31 10 4 6 -7 10 -24 10
-17 0 -31 -4 -31 -10z"/>
<path d="M4550 3281 c0 -6 -9 -11 -20 -11 -17 0 -20 -7 -20 -51 l0 -50 73 3
72 4 3 41 c3 36 0 42 -20 49 -13 3 -26 12 -30 18 -6 8 -11 7 -17 -3 -8 -12
-12 -12 -25 -2 -11 9 -16 10 -16 2z m0 -61 c0 -16 -4 -30 -10 -30 -5 0 -10 14
-10 30 0 17 5 30 10 30 6 0 10 -13 10 -30z m40 0 c0 -16 -4 -30 -10 -30 -5 0
-10 14 -10 30 0 17 5 30 10 30 6 0 10 -13 10 -30z m50 5 c0 -16 -6 -25 -15
-25 -9 0 -15 9 -15 25 0 16 6 25 15 25 9 0 15 -9 15 -25z"/>
<path d="M4700 3250 c0 -5 13 -10 30 -10 33 0 34 -3 45 -105 4 -33 11 -68 16
-77 10 -19 49 -25 49 -8 0 6 -6 10 -14 10 -21 0 -23 6 -36 100 -6 47 -17 88
-23 92 -18 11 -67 10 -67 -2z"/>
<path d="M5260 3250 c0 -5 9 -10 20 -10 11 0 20 5 20 10 0 6 -9 10 -20 10 -11
0 -20 -4 -20 -10z"/>
<path d="M3490 3231 c0 -5 15 -11 33 -13 28 -3 32 -7 35 -36 4 -42 -14 -64
-47 -60 -23 3 -26 8 -29 51 -2 26 -7 47 -12 47 -8 0 -4 -87 6 -119 4 -11 7
-12 16 -3 7 7 27 12 45 12 l34 0 -3 63 -3 62 -37 3 c-21 2 -38 -1 -38 -7z"/>
<path d="M4976 3223 c-4 -9 -2 -21 4 -27 7 -7 10 -2 10 17 0 31 -5 34 -14 10z"/>
<path d="M5065 3227 c-4 -10 -5 -21 -1 -24 10 -10 18 4 13 24 -4 17 -4 17 -12
0z"/>
<path d="M3935 3220 c-18 -7 -16 -8 10 -11 29 -4 30 -6 35 -64 l5 -60 9 63 c5
42 12 62 22 62 10 0 14 -12 14 -38 0 -21 6 -45 13 -54 16 -21 57 -30 57 -13 0
8 -10 15 -22 17 -19 2 -24 10 -26 46 -2 32 0 42 12 42 8 0 18 5 21 10 7 12
-120 13 -150 0z"/>
<path d="M4285 3220 c-18 -7 -16 -8 10 -11 29 -4 30 -6 35 -64 l5 -60 9 63 c5
42 12 62 22 62 10 0 14 -12 14 -38 0 -21 6 -45 13 -54 16 -21 57 -30 57 -13 0
8 -10 15 -22 17 -19 2 -24 10 -26 46 -2 32 0 42 12 42 8 0 18 5 21 10 7 12
-120 13 -150 0z"/>
<path d="M3848 3202 c19 -14 22 -24 16 -46 -5 -20 -2 -30 11 -40 17 -12 16
-14 -4 -33 -13 -12 -19 -23 -14 -26 8 -5 207 -11 228 -7 29 6 -50 18 -118 19
-76 1 -77 2 -67 22 9 16 8 24 -5 39 -11 12 -14 26 -9 44 5 22 2 27 -21 36 -38
14 -43 12 -17 -8z"/>
<path d="M4198 3202 c19 -14 22 -24 16 -46 -5 -20 -2 -30 11 -40 17 -12 16
-14 -4 -33 -13 -12 -19 -23 -14 -26 8 -5 207 -11 228 -7 29 6 -50 18 -118 19
-76 1 -77 2 -67 22 9 16 8 24 -5 39 -11 12 -14 26 -9 44 5 22 2 27 -21 36 -38
14 -43 12 -17 -8z"/>
<path d="M4733 3201 c-3 -12 -11 -17 -19 -14 -16 6 -19 -13 -3 -23 6 -3 9 -19
5 -35 -3 -16 -1 -29 4 -29 6 0 10 7 10 16 0 11 6 14 22 8 21 -6 22 -5 8 10 -7
10 -13 33 -12 52 3 37 -7 46 -15 15z"/>
<path d="M5671 3186 c-18 -19 -31 -40 -29 -47 2 -7 18 6 37 30 41 52 36 62 -8
17z"/>
<path d="M4676 3187 c-5 -15 -4 -49 0 -75 l8 -47 4 38 c2 20 2 54 0 75 -4 36
-4 36 -12 9z"/>
<path d="M3279 3159 c-15 -47 -31 -57 -65 -39 -36 20 -42 3 -5 -17 35 -20 37
-29 15 -61 -14 -20 -14 -22 0 -22 9 0 16 4 16 8 0 5 6 16 13 25 11 15 16 15
57 3 25 -8 53 -17 63 -21 10 -4 17 -3 17 4 0 5 -23 18 -51 28 -28 10 -54 24
-56 30 -3 7 2 33 10 58 9 25 12 45 7 45 -5 0 -15 -18 -21 -41z"/>
<path d="M5265 3170 c27 -12 35 -12 35 0 0 6 -12 10 -27 9 -25 0 -26 -1 -8 -9z"/>
<path d="M4540 3150 c0 -5 18 -10 39 -10 22 0 43 5 46 10 4 6 -12 10 -39 10
-25 0 -46 -4 -46 -10z"/>
<path d="M5370 3145 c-8 -9 -10 -29 -7 -51 7 -40 17 -56 24 -36 3 6 18 12 34
12 16 0 29 5 29 10 0 6 -16 10 -36 10 -21 0 -33 4 -29 10 3 6 22 10 41 10 19
0 34 5 34 10 0 6 -19 10 -42 11 -38 0 -40 1 -19 10 14 5 38 7 54 3 l29 -6 -7
-60 c-5 -39 -4 -58 3 -55 12 8 24 99 16 121 -8 22 -106 23 -124 1z"/>
<path d="M4525 3110 c-3 -6 4 -10 18 -10 19 0 26 -8 34 -37 l10 -38 2 36 c1
29 6 37 29 46 24 10 22 11 -30 12 -31 1 -60 -3 -63 -9z"/>
<path d="M5250 3090 c0 -5 9 -10 20 -10 11 0 20 5 20 10 0 6 -9 10 -20 10 -11
0 -20 -4 -20 -10z"/>
<path d="M4540 3060 c0 -11 4 -20 9 -20 5 0 7 9 4 20 -3 11 -7 20 -9 20 -2 0
-4 -9 -4 -20z"/>
<path d="M4612 3068 c2 -6 10 -14 16 -16 7 -2 10 2 6 12 -7 18 -28 22 -22 4z"/>
<path d="M3907 2821 c-3 -13 -13 -21 -27 -21 -11 0 -18 -4 -15 -10 3 -5 15
-10 27 -10 16 0 19 -5 16 -25 -5 -24 -3 -25 49 -25 51 0 54 -2 51 -22 -3 -20
-10 -23 -55 -26 -48 -3 -53 -1 -53 17 0 12 -4 21 -10 21 -13 0 -13 -16 0 -41
6 -10 20 -19 31 -19 11 0 17 -4 14 -10 -3 -5 -19 -10 -35 -10 -16 0 -32 -4
-35 -10 -4 -6 7 -10 24 -10 37 0 37 -3 10 -46 -11 -19 -16 -34 -10 -34 5 0 14
8 20 17 8 16 10 14 16 -10 4 -15 11 -27 16 -27 12 0 11 12 -1 44 -14 38 -3 56
34 56 22 0 33 -5 33 -15 0 -18 -14 -20 -19 -3 -3 8 -11 7 -28 -5 -20 -14 -21
-17 -7 -23 12 -4 17 -18 17 -45 0 -21 5 -39 10 -39 6 0 10 6 10 13 0 8 9 22
20 32 11 10 20 24 20 32 0 11 4 11 20 3 30 -16 25 6 -6 27 -25 16 -25 17 -8
30 16 11 11 13 -35 13 -32 0 -50 4 -46 10 3 6 19 10 34 10 25 0 29 4 33 34 6
50 1 56 -48 56 -37 0 -44 3 -44 20 0 27 56 29 63 3 4 -15 5 -16 6 -2 0 9 11
20 24 24 l22 8 -22 4 c-13 2 -23 11 -23 19 0 8 -4 14 -10 14 -5 0 -10 -7 -10
-15 0 -20 -40 -19 -55 1 -11 15 -12 15 -18 -5z m94 -278 c-9 -16 -10 -14 -11
12 0 21 3 26 11 18 8 -8 8 -16 0 -30z"/>
<path d="M5390 2818 c0 -13 5 -30 10 -38 7 -11 10 -5 10 23 0 20 -4 37 -10 37
-5 0 -10 -10 -10 -22z"/>
<path d="M3592 2816 c1 -10 8 -17 13 -17 15 1 12 24 -3 29 -9 3 -13 -2 -10
-12z"/>
<path d="M5310 2800 c0 -16 5 -30 10 -30 6 0 10 14 10 30 0 17 -4 30 -10 30
-5 0 -10 -13 -10 -30z"/>
<path d="M3196 2798 c-5 -18 -15 -28 -26 -28 -26 0 -34 -17 -11 -25 18 -5 18
-9 5 -63 -15 -65 -18 -116 -5 -92 4 8 14 43 21 77 7 35 18 67 24 72 7 6 45 11
86 13 41 2 73 7 70 12 -3 5 -37 8 -77 7 -71 -2 -72 -2 -75 26 l-4 28 -8 -27z"/>
<path d="M4246 2809 c-4 -9 -22 -20 -39 -25 l-32 -8 32 -3 c24 -3 33 -10 35
-26 4 -27 24 -23 21 4 -2 16 4 19 36 19 22 0 42 -6 45 -12 5 -10 7 -10 12 0 3
6 19 12 35 12 16 0 29 5 29 10 0 6 -13 10 -30 10 -20 0 -30 5 -30 15 0 8 -4
15 -10 15 -5 0 -10 -7 -10 -15 0 -23 -77 -21 -83 3 -4 15 -5 15 -11 1z"/>
<path d="M4960 2802 c0 -5 5 -13 12 -20 16 -16 29 -15 22 2 -6 16 -34 30 -34
18z"/>
<path d="M3585 2758 c-103 -11 -130 -33 -30 -24 156 14 185 18 185 27 0 11
-45 10 -155 -3z"/>
<path d="M4560 2750 c0 -5 25 -10 55 -10 l55 0 0 -109 c0 -63 4 -112 10 -116
6 -4 10 35 10 109 0 86 3 116 13 117 6 0 31 0 55 -1 24 -1 42 3 42 9 0 7 -41
11 -120 11 -73 0 -120 -4 -120 -10z"/>
<path d="M5278 2743 c-10 -2 -18 -9 -18 -15 0 -6 10 -8 23 -4 12 3 59 6 105 6
48 0 82 4 82 10 0 10 -157 12 -192 3z"/>
<path d="M4314 2716 c-3 -14 -4 -33 -1 -43 4 -15 5 -14 6 4 1 28 14 35 45 27
22 -5 24 -9 15 -26 -7 -13 -16 -17 -30 -13 -21 7 -27 -10 -6 -18 8 -3 3 -14
-15 -34 -31 -32 -36 -45 -14 -37 10 4 16 -3 18 -23 3 -26 6 -28 48 -28 45 0
45 0 48 38 l3 37 -41 0 c-25 0 -39 -4 -35 -10 3 -5 17 -10 31 -10 17 0 24 -5
24 -20 0 -15 -7 -20 -29 -20 -25 0 -30 5 -36 31 -11 47 12 65 64 51 47 -11 56
1 11 17 -32 11 -37 20 -19 38 19 19 2 43 -31 43 -16 0 -30 5 -30 10 0 20 -20
9 -26 -14z"/>
<path d="M3625 2679 c-6 -36 -2 -60 9 -48 10 11 17 89 8 89 -6 0 -13 -18 -17
-41z"/>
<path d="M3915 2710 c3 -5 22 -10 41 -10 19 0 34 5 34 10 0 6 -18 10 -41 10
-24 0 -38 -4 -34 -10z"/>
<path d="M4915 2710 c-15 -6 -6 -9 33 -9 61 -1 64 -10 33 -90 -11 -27 -17 -52
-14 -55 10 -9 167 5 178 17 7 6 -18 7 -72 3 -46 -4 -83 -4 -83 -1 0 3 9 33 21
67 16 49 18 63 7 69 -17 11 -77 10 -103 -1z"/>
<path d="M3298 2704 c-5 -4 -8 -15 -8 -25 0 -10 -9 -21 -20 -24 -11 -3 -20
-11 -20 -16 0 -6 8 -8 19 -4 16 5 19 0 23 -30 4 -31 1 -35 -19 -35 -13 0 -23
-4 -23 -10 0 -6 27 -10 60 -10 60 0 84 16 33 22 -24 3 -28 8 -28 33 0 23 5 31
23 33 30 4 28 22 -2 22 -19 0 -25 6 -28 26 -2 14 -6 22 -10 18z"/>
<path d="M3553 2698 c-36 -12 -42 -23 -18 -32 11 -4 15 -22 15 -76 0 -51 3
-69 11 -64 8 5 10 31 6 80 -5 66 -4 74 14 79 10 4 19 11 19 16 0 11 -4 10 -47
-3z"/>
<path d="M4230 2695 c7 -9 15 -13 17 -11 7 7 -7 26 -19 26 -6 0 -6 -6 2 -15z"/>
<path d="M3660 2690 c0 -5 14 -10 31 -10 l31 0 -19 -32 c-16 -27 -25 -32 -49
-30 -28 3 -28 2 -12 -14 17 -17 17 -19 -4 -41 -29 -31 -14 -43 17 -13 23 22
25 22 50 6 20 -13 25 -14 25 -2 0 7 -9 20 -20 27 -21 14 -21 14 5 48 38 52 34
71 -15 71 -22 0 -40 -4 -40 -10z"/>
<path d="M5296 2691 c5 -5 23 -11 39 -13 24 -2 31 -8 33 -29 3 -25 0 -27 -43
-31 l-47 -3 5 32 c3 18 2 33 -3 33 -16 0 -23 -48 -14 -98 8 -44 8 -45 12 -14
3 32 5 33 40 30 35 -3 37 -5 40 -40 5 -61 19 -44 26 32 10 99 5 110 -52 110
-28 0 -42 -4 -36 -9z"/>
<path d="M5478 2694 c-5 -4 -8 -43 -8 -86 0 -72 -2 -79 -22 -88 -22 -8 -22 -9
5 -9 15 -1 30 5 33 12 8 21 0 180 -8 171z"/>
<path d="M3208 2664 c-5 -4 -8 -41 -8 -83 1 -56 3 -71 11 -59 11 20 8 154 -3
142z"/>
<path d="M4740 2659 c0 -8 7 -24 15 -35 11 -14 14 -15 14 -4 0 8 -6 24 -14 34
-11 15 -15 16 -15 5z"/>
<path d="M5310 2660 c-21 -13 -7 -22 25 -14 20 5 23 9 13 15 -16 11 -20 11
-38 -1z"/>
<path d="M5410 2636 c0 -20 5 -36 10 -36 6 0 10 13 10 29 0 17 -4 33 -10 36
-6 4 -10 -8 -10 -29z"/>
<path d="M3660 2650 c0 -5 5 -10 10 -10 6 0 10 5 10 10 0 6 -4 10 -10 10 -5 0
-10 -4 -10 -10z"/>
<path d="M4220 2649 c0 -9 7 -22 15 -29 19 -16 19 0 0 26 -12 16 -14 16 -15 3z"/>
<path d="M4210 2560 c-11 -7 -7 -10 18 -10 17 0 32 5 32 10 0 13 -30 13 -50 0z"/>
<path d="M4293 2303 c-9 -26 -18 -33 -38 -33 -15 0 -24 -4 -20 -10 3 -5 17
-10 31 -10 19 0 24 -5 24 -25 0 -28 -25 -45 -67 -46 -32 -1 -24 -5 29 -14 36
-6 37 -6 41 -58 3 -40 5 -47 11 -30 6 15 19 25 42 29 45 8 44 24 -2 24 -28 0
-35 3 -32 18 2 12 14 18 41 20 46 4 39 22 -9 22 -31 0 -34 2 -34 30 0 27 3 30
30 30 17 0 30 5 30 10 0 6 -13 10 -29 10 -26 0 -30 4 -33 33 l-3 32 -12 -32z"/>
<path d="M4623 2315 c-19 -13 -23 -26 -23 -66 l0 -49 71 0 70 0 -7 58 c-3 31
-7 58 -8 59 -1 1 -20 5 -41 8 -29 4 -46 2 -62 -10z m82 -21 c9 -9 15 -28 13
-43 -3 -24 -8 -26 -51 -29 -42 -3 -48 -1 -45 15 2 13 14 19 46 21 52 4 46 22
-9 22 -57 0 -50 27 8 29 12 1 29 -6 38 -15z"/>
<path d="M5362 2314 c-7 -8 -23 -15 -35 -15 -16 -1 -14 -3 8 -8 25 -5 31 -12
33 -39 3 -29 1 -32 -22 -32 -21 0 -26 5 -26 24 0 14 -4 28 -10 31 -12 7 -14
-55 -2 -70 4 -5 18 -10 32 -10 44 0 31 -30 -15 -33 -22 -2 -44 -8 -49 -13 -11
-10 97 -12 156 -3 46 8 40 24 -8 24 -24 0 -34 5 -34 15 0 8 4 15 9 15 19 0 41
32 41 61 0 23 -6 32 -27 42 -16 6 -30 15 -33 18 -3 4 -11 1 -18 -7z m56 -51
c2 -11 -4 -26 -13 -33 -13 -11 -15 -8 -15 25 0 39 22 46 28 8z"/>
<path d="M6080 2309 c0 -11 4 -18 10 -14 5 3 7 12 3 20 -7 21 -13 19 -13 -6z"/>
<path d="M3652 2270 c-25 -53 -29 -78 -9 -61 10 8 17 7 25 -1 9 -9 5 -20 -20
-45 -23 -24 -27 -33 -16 -33 23 0 98 98 98 129 0 6 -11 13 -24 17 -14 3 -27
13 -29 22 -3 11 -11 2 -25 -28z m56 -28 c-2 -8 -7 -17 -13 -19 -17 -5 -38 14
-32 30 8 20 49 10 45 -11z"/>
<path d="M5039 2248 c-44 -90 -79 -104 -79 -31 0 27 3 34 15 29 8 -3 15 -1 15
4 0 15 -43 22 -70 11 l-25 -10 23 -7 c17 -5 22 -14 22 -40 0 -27 -4 -34 -20
-34 -11 0 -20 -4 -20 -10 0 -5 9 -10 20 -10 15 0 20 -7 20 -29 0 -16 3 -36 6
-45 5 -13 -1 -16 -26 -16 -18 0 -29 -4 -25 -10 3 -5 28 -10 56 -10 27 0 49 5
49 10 0 6 -9 10 -20 10 -17 0 -20 7 -20 45 0 41 2 45 25 45 21 0 31 12 60 71
20 39 34 76 32 82 -2 7 -19 -18 -38 -55z"/>
<path d="M3567 2223 c-10 -98 -8 -203 2 -203 10 0 21 251 11 263 -4 4 -10 -23
-13 -60z"/>
<path d="M3183 2273 c-13 -2 -23 -9 -23 -15 0 -5 7 -7 16 -4 9 3 27 6 40 6 13
0 24 5 24 10 0 10 -16 11 -57 3z"/>
<path d="M3830 2270 c20 -13 150 -13 150 0 0 6 -34 10 -82 10 -57 0 -78 -3
-68 -10z"/>
<path d="M6475 2275 c-5 -2 -32 -7 -60 -11 l-50 -8 37 -5 36 -6 -40 -67 c-22
-37 -38 -73 -35 -80 2 -7 12 4 22 25 11 20 22 37 27 37 4 0 8 -22 8 -49 0 -73
5 -81 55 -81 49 0 54 7 57 76 2 55 -6 64 -57 64 -24 0 -46 4 -49 8 -3 5 6 25
20 45 19 28 32 37 54 37 16 0 32 5 35 10 6 9 -37 13 -60 5z m42 -141 c3 -8 1
-29 -4 -47 -7 -25 -15 -33 -36 -35 -29 -4 -32 0 -42 61 l-6 37 41 0 c28 0 43
-5 47 -16z"/>
<path d="M3360 2258 c0 -18 18 -34 28 -24 3 4 -2 14 -11 23 -16 16 -17 16 -17
1z"/>
<path d="M5740 2231 c0 -22 5 -43 10 -46 6 -4 10 12 10 39 0 25 -4 46 -10 46
-5 0 -10 -18 -10 -39z"/>
<path d="M5991 2256 c-7 -8 -11 -35 -9 -63 l4 -48 8 53 9 52 83 0 c92 0 85 5
98 -70 2 -14 3 0 2 30 l-1 55 -91 3 c-70 2 -94 -1 -103 -12z"/>
<path d="M5617 2235 c-25 -24 -27 -32 -27 -101 0 -69 2 -75 24 -85 14 -7 40
-9 60 -5 30 6 37 12 46 44 5 20 10 54 10 74 0 32 -4 39 -25 44 -14 3 -39 4
-55 2 -37 -6 -38 0 -2 29 18 15 22 22 12 23 -8 0 -28 -11 -43 -25z m96 -52 c2
-5 -1 -31 -5 -60 -9 -48 -11 -51 -44 -57 -19 -4 -39 -4 -44 -1 -15 9 -13 112
3 118 19 8 85 8 90 0z"/>
<path d="M5658 2143 c-40 -6 -34 -23 7 -23 24 0 35 5 35 15 0 8 -3 14 -7 14
-5 -1 -20 -4 -35 -6z"/>
<path d="M3285 2211 l7 -41 -41 0 c-37 0 -41 2 -41 25 0 14 -4 25 -10 25 -5 0
-10 -11 -10 -25 0 -19 -8 -28 -35 -39 -19 -8 -35 -17 -35 -20 0 -3 16 -2 35 1
32 5 35 4 35 -20 0 -19 -7 -28 -27 -35 l-28 -10 33 -1 c26 -1 32 -5 33 -23 0
-23 1 -22 12 2 6 14 16 28 21 32 6 4 3 10 -7 14 -9 3 -17 17 -17 30 0 20 5 24
29 24 16 0 36 3 44 6 21 8 41 -57 34 -110 -5 -35 -4 -38 7 -24 10 13 16 14 24
6 17 -17 27 -2 12 17 -12 14 -11 28 6 70 7 20 7 20 -14 1 -12 -11 -22 -15 -22
-10 0 5 -3 19 -6 32 -5 19 -2 22 20 22 14 0 26 5 26 10 0 6 -14 10 -30 10 -26
0 -31 5 -37 30 -9 48 -26 49 -18 1z"/>
<path d="M3842 2179 c3 -59 1 -77 -11 -87 -13 -11 -7 -12 42 -7 l57 6 0 -36
c0 -22 4 -34 10 -30 6 3 10 19 10 34 0 15 4 31 8 37 5 5 3 43 -4 84 -6 41 -12
66 -13 55 -1 -16 -8 -20 -41 -20 -25 -1 -40 4 -40 11 0 7 -5 16 -11 20 -8 5
-10 -14 -7 -67z m98 1 c0 -17 -7 -20 -40 -20 -27 0 -40 4 -40 13 0 21 11 27
47 27 26 0 33 -4 33 -20z m0 -44 c0 -19 -8 -23 -45 -27 -22 -3 -31 1 -33 13
-2 12 5 18 30 21 18 2 36 5 41 5 4 1 7 -4 7 -12z"/>
<path d="M5072 2238 c5 -15 88 -51 88 -38 0 5 -19 19 -42 30 -49 23 -51 24
-46 8z"/>
<path d="M5780 2231 c0 -6 11 -11 24 -11 61 0 65 -12 41 -124 -13 -64 -13 -88
0 -74 12 12 38 189 29 198 -15 15 -94 24 -94 11z"/>
<path d="M3490 2220 c0 -5 9 -14 20 -20 16 -8 20 -8 20 4 0 7 -7 17 -16 20
-21 8 -24 8 -24 -4z"/>
<path d="M3990 2221 c0 -6 16 -11 35 -11 41 0 50 -15 36 -54 -10 -23 -13 -25
-32 -16 -28 16 -34 7 -10 -14 15 -13 18 -27 15 -54 -4 -36 -4 -36 7 -9 l11 28
24 -22 c33 -31 44 -15 12 17 -25 25 -25 27 -11 76 8 27 12 52 9 55 -11 12 -96
16 -96 4z"/>
<path d="M6035 2200 c-3 -5 3 -10 14 -10 17 0 21 -6 21 -30 0 -20 -5 -30 -15
-30 -8 0 -15 -4 -15 -10 0 -5 7 -10 15 -10 10 0 15 -11 15 -35 0 -32 -2 -35
-29 -35 -17 0 -33 -4 -36 -10 -4 -6 25 -10 79 -10 85 0 120 16 49 22 -33 3
-38 7 -41 31 -3 22 1 30 17 34 27 7 27 19 1 26 -24 6 -29 57 -5 57 8 0 15 5
15 10 0 6 -18 10 -39 10 -22 0 -43 -4 -46 -10z"/>
<path d="M5061 2163 c-8 -21 -16 -44 -18 -50 -3 -7 -1 -13 5 -13 8 0 42 74 42
93 0 20 -18 2 -29 -30z"/>
<path d="M4648 2173 c-63 -3 -98 -8 -98 -15 0 -7 19 -9 61 -4 34 3 84 6 111 6
30 0 47 4 43 10 -3 6 -9 9 -13 8 -4 -1 -51 -4 -104 -5z"/>
<path d="M3700 2141 c0 -15 -10 -21 -40 -26 -56 -10 -60 -25 -6 -25 l46 0 0
-45 c0 -25 5 -45 10 -45 6 0 10 21 10 46 0 37 4 47 20 51 24 6 27 23 4 23 -9
0 -18 9 -21 20 -7 25 -23 26 -23 1z"/>
<path d="M4228 2130 c-11 -35 -9 -102 2 -120 8 -12 10 -9 10 11 l0 26 91 -24
c50 -13 94 -21 97 -18 11 10 -13 19 -102 39 l-85 19 -3 46 c-2 38 -4 42 -10
21z"/>
<path d="M5088 2100 c-9 -27 -12 -50 -7 -50 10 0 21 26 33 73 11 47 -9 29 -26
-23z"/>
<path d="M5780 2120 c0 -18 4 -29 10 -25 6 3 10 15 10 25 0 10 -4 22 -10 25
-6 4 -10 -7 -10 -25z"/>
<path d="M3475 2130 c-4 -6 6 -10 24 -10 16 0 33 5 36 10 4 6 -6 10 -24 10
-16 0 -33 -4 -36 -10z"/>
<path d="M4590 2096 c0 -24 -3 -51 -6 -60 -5 -13 1 -16 30 -16 25 0 36 -4 36
-15 0 -21 20 -19 21 3 0 9 2 43 3 75 1 31 0 57 -3 57 -3 -1 -17 -7 -31 -15
-19 -11 -21 -14 -7 -15 24 0 22 -20 -3 -20 -15 0 -20 7 -20 25 0 14 -4 25 -10
25 -5 0 -10 -20 -10 -44z m63 -41 c-4 -15 -36 -12 -41 3 -3 9 3 13 19 10 13
-1 23 -7 22 -13z"/>
<path d="M4710 2122 c0 -6 7 -12 15 -16 19 -7 8 -36 -13 -36 -12 0 -13 -3 -4
-12 7 -7 12 -20 12 -30 0 -10 5 -18 10 -18 6 0 10 7 10 16 0 9 6 14 13 11 39
-14 57 -17 57 -9 0 5 -14 15 -31 22 -26 11 -30 17 -27 44 2 26 -1 32 -19 34
-13 2 -23 -1 -23 -6z"/>
<path d="M5335 2120 c-3 -5 1 -10 9 -10 13 0 16 -13 16 -65 0 -37 4 -65 10
-65 6 0 10 7 10 15 0 11 11 13 53 9 58 -6 48 9 -14 20 -34 6 -37 9 -41 46 -3
36 -1 40 19 40 27 0 29 -17 7 -48 -8 -12 -11 -22 -5 -22 14 0 41 41 41 61 0 9
-7 20 -16 23 -25 10 -82 7 -89 -4z"/>
<path d="M5310 2100 c0 -28 12 -60 22 -60 6 0 7 11 3 28 -7 31 -25 54 -25 32z"/>
<path d="M5120 2055 c-14 -50 -7 -74 10 -31 18 47 22 76 12 76 -5 0 -15 -20
-22 -45z"/>
<path d="M6130 2081 c0 -12 5 -21 10 -21 6 0 10 6 10 14 0 8 -4 18 -10 21 -5
3 -10 -3 -10 -14z"/>
<path d="M3640 2050 c0 -5 9 -10 20 -10 11 0 20 5 20 10 0 6 -9 10 -20 10 -11
0 -20 -4 -20 -10z"/>
<path d="M7643 1193 c-33 -4 -33 -5 -33 -61 0 -31 -5 -145 -12 -254 l-12 -196
-29 -6 c-16 -3 -51 -6 -78 -6 -54 0 -66 -17 -19 -26 30 -6 30 -7 30 -78 0 -62
-4 -76 -30 -115 -17 -25 -29 -49 -27 -55 4 -12 117 -10 129 2 4 4 -6 28 -22
52 -31 46 -37 91 -24 159 9 41 20 39 27 -5 3 -20 13 -44 20 -53 8 -9 20 -32
26 -52 7 -20 20 -44 29 -53 54 -48 211 -62 292 -25 85 38 106 73 118 197 7 64
8 67 36 72 40 7 46 30 8 30 l-29 0 -1 215 c0 118 -3 219 -7 224 -3 6 -22 15
-43 21 -40 11 -297 21 -349 13z m277 -23 c110 -18 100 -1 100 -174 l0 -153
-102 -7 c-57 -3 -146 -6 -198 -7 l-95 -2 3 164 c3 135 7 166 20 177 20 15 180
16 272 2z m90 -404 c0 -34 -4 -46 -17 -50 -10 -2 -96 -12 -191 -22 -149 -15
-175 -15 -183 -3 -5 8 -7 23 -4 34 2 11 5 32 5 47 0 34 5 35 223 37 l167 1 0
-44z m-234 -166 c-11 -73 -109 -107 -169 -60 -26 21 -45 86 -29 102 5 5 47 12
93 17 98 8 114 -1 105 -59z m139 39 c77 -19 85 -24 85 -45 0 -30 -25 -46 -128
-84 -108 -39 -216 -58 -237 -40 -26 21 -17 30 33 30 83 0 132 43 135 118 2 49
0 49 112 21z m56 -136 c-8 -15 -10 -15 -11 -2 0 17 10 32 18 25 2 -3 -1 -13
-7 -23z m-31 -18 c0 -16 -6 -25 -15 -25 -9 0 -15 9 -15 25 0 16 6 25 15 25 9
0 15 -9 15 -25z m-50 -19 c0 -23 -16 -36 -46 -36 -17 0 -19 46 -1 53 30 13 47
7 47 -17z m-80 -22 c0 -23 -3 -25 -37 -22 -26 2 -38 8 -38 18 0 12 21 22 68
29 4 0 7 -11 7 -25z m-100 -4 c0 -5 -7 -10 -15 -10 -8 0 -15 5 -15 10 0 6 7
10 15 10 8 0 15 -4 15 -10z"/>
<path d="M7180 1005 c1 -17 29 -49 37 -41 4 3 -3 16 -15 29 -12 12 -22 17 -22
12z"/>
<path d="M7057 984 c-3 -3 -2 -17 4 -31 5 -13 9 -57 9 -98 0 -74 9 -96 28 -72
12 14 11 132 -1 143 -4 4 -7 20 -7 36 0 26 -17 38 -33 22z"/>
<path d="M7166 965 c16 -25 34 -33 34 -17 0 10 -33 42 -44 42 -3 0 1 -11 10
-25z"/>
<path d="M6507 953 c-4 -3 -7 -17 -7 -31 0 -19 -4 -23 -19 -19 -22 5 -46 -7
-38 -20 8 -13 86 -9 130 7 48 18 51 44 3 35 -28 -6 -34 -4 -39 14 -5 21 -18
27 -30 14z"/>
<path d="M6230 916 c0 -7 -7 -19 -15 -26 -11 -9 -13 -16 -5 -24 15 -15 53 25
44 47 -7 20 -24 23 -24 3z"/>
<path d="M6890 890 c0 -35 -6 -48 -36 -78 -25 -25 -32 -37 -23 -43 16 -10 45
6 63 34 19 30 25 119 9 124 -9 3 -13 -8 -13 -37z"/>
<path d="M6287 902 c6 -4 10 -19 10 -34 -2 -24 -4 -25 -18 -12 -15 14 -20 12
-42 -10 -15 -14 -32 -26 -39 -26 -9 0 -14 -15 -15 -42 -2 -31 -8 -47 -25 -61
l-23 -18 35 6 c19 3 79 8 133 12 96 5 121 15 72 27 -15 4 -30 17 -35 31 -8 22
-16 25 -57 25 -43 0 -46 1 -31 16 14 14 20 14 62 0 46 -16 66 -14 66 5 0 5
-14 9 -30 9 -30 0 -30 1 -24 40 6 39 6 40 -22 40 -16 0 -24 -4 -17 -8z m-57
-149 c0 -7 -7 -13 -15 -13 -16 0 -19 9 -9 35 5 13 8 14 15 3 5 -7 9 -19 9 -25z
m91 4 c-13 -13 -26 -3 -16 12 3 6 11 8 17 5 6 -4 6 -10 -1 -17z m-41 -3 c0 -9
-5 -14 -12 -12 -18 6 -21 28 -4 28 9 0 16 -7 16 -16z"/>
<path d="M6817 881 c12 -20 21 -27 28 -20 12 12 -6 43 -29 47 -14 3 -14 1 1
-27z"/>
<path d="M7130 902 c0 -14 60 -53 70 -47 19 12 10 26 -25 41 -40 16 -45 17
-45 6z"/>
<path d="M5960 889 c-35 -14 -36 -16 -7 -43 15 -14 27 -27 27 -30 0 -3 -13
-12 -30 -21 -32 -17 -40 -35 -15 -35 8 0 15 -4 15 -10 0 -5 11 -10 25 -10 35
0 31 -17 -5 -25 -16 -4 -30 -11 -30 -17 0 -6 10 -8 23 -5 12 3 48 9 79 12 59
7 71 25 17 25 -34 0 -39 17 -7 29 23 8 17 15 -23 25 -18 4 -31 1 -39 -9 -7 -8
-17 -15 -23 -15 -7 0 0 11 14 25 24 25 26 25 62 10 37 -15 57 -13 57 6 0 5
-11 9 -24 9 -13 0 -32 3 -41 6 -14 6 -14 8 0 31 9 14 14 31 11 39 -6 16 -49
17 -86 3z m53 -16 c4 -3 2 -12 -4 -20 -9 -10 -15 -10 -25 -2 -8 6 -11 15 -8
20 6 11 28 12 37 2z"/>
<path d="M6150 891 c0 -11 26 -22 34 -14 3 3 3 10 0 14 -7 12 -34 11 -34 0z"/>
<path d="M6750 893 c0 -5 11 -21 25 -38 19 -24 24 -26 25 -12 0 27 -18 57 -35
57 -8 0 -15 -3 -15 -7z"/>
<path d="M5872 855 c3 -14 1 -28 -3 -31 -5 -3 -9 4 -9 15 0 12 -4 21 -10 21
-5 0 -10 -25 -10 -55 0 -56 11 -69 29 -37 8 13 10 3 11 -41 0 -43 3 -57 13
-54 7 2 12 24 12 58 0 30 4 60 9 67 5 8 4 18 -3 25 -6 6 -11 21 -11 34 0 15
-6 23 -16 23 -12 0 -15 -7 -12 -25z"/>
<path d="M6521 851 c-28 -18 -27 -31 2 -31 19 0 28 -9 40 -41 25 -64 53 -40
32 28 -6 19 -2 23 29 29 21 3 35 11 33 18 -5 16 -111 14 -136 -3z"/>
<path d="M6150 835 c-7 -9 -10 -19 -6 -22 8 -9 38 9 44 25 5 17 -23 15 -38 -3z"/>
<path d="M6440 815 c0 -8 6 -15 14 -15 7 0 19 7 26 15 11 13 8 15 -14 15 -16
0 -26 -5 -26 -15z"/>
<path d="M7079 608 c-15 -25 -19 -45 -16 -81 4 -41 11 -56 45 -89 34 -35 44
-40 68 -34 16 4 48 27 71 52 77 80 80 175 4 182 -18 2 -43 -4 -56 -12 -20 -13
-25 -13 -35 -1 -22 26 -58 18 -81 -17z m182 2 c24 -13 24 -34 0 -87 -21 -46
-90 -99 -116 -90 -24 10 -55 69 -55 105 0 66 39 96 62 47 12 -27 38 -34 38
-11 0 8 10 22 22 30 27 19 24 19 49 6z"/>
</g>
</svg>
