<?xml version="1.0" standalone="no"?>
<!DOCTYPE svg PUBLIC "-//W3C//DTD SVG 20010904//EN"
 "http://www.w3.org/TR/2001/REC-SVG-20010904/DTD/svg10.dtd">
<svg version="1.0" xmlns="http://www.w3.org/2000/svg"
 width="220.000000pt" height="220.000000pt" viewBox="0 0 220.000000 220.000000"
 preserveAspectRatio="xMidYMid meet">
<metadata>
Created by potrace 1.10, written by Peter Selinger 2001-2011
</metadata>
<g transform="translate(0.000000,220.000000) scale(0.100000,-0.100000)"
fill="#000000" stroke="none">
<path d="M1450 1955 c-8 -2 -45 -7 -82 -10 -36 -4 -73 -12 -81 -18 -12 -9 -21
-63 -36 -207 -22 -202 -31 -278 -55 -465 -8 -60 -20 -159 -27 -220 -6 -60 -15
-126 -18 -145 l-7 -35 -154 -9 c-90 -5 -158 -13 -162 -20 -14 -21 15 -36 69
-36 l55 0 -6 -42 c-3 -24 -10 -94 -16 -155 -6 -62 -14 -123 -19 -135 -5 -13
-37 -59 -70 -102 -34 -44 -60 -84 -58 -90 3 -7 40 -10 108 -9 129 2 189 11
189 26 0 7 -27 50 -60 96 -57 79 -60 86 -60 140 1 99 25 262 41 272 22 14 65
7 60 -11 -8 -33 -2 -140 9 -162 7 -13 22 -33 33 -45 13 -15 23 -46 29 -85 10
-71 27 -95 103 -138 153 -87 385 -81 582 15 88 43 151 103 185 176 25 52 50
167 66 299 l7 64 40 8 c80 16 85 18 85 38 0 18 -7 20 -55 20 -55 0 -55 0 -55
31 0 17 11 110 25 207 42 290 65 617 49 679 -8 28 -20 33 -144 49 -97 14 -536
28 -570 19z m550 -61 c58 -8 110 -20 115 -25 12 -12 9 -200 -4 -309 -5 -41
-15 -127 -21 -190 -6 -63 -13 -124 -16 -136 -4 -23 12 -22 -459 -44 -121 -6
-251 -15 -290 -19 -38 -5 -73 -6 -77 -2 -14 12 44 668 62 701 5 10 22 21 37
25 103 27 466 27 653 -1z m60 -751 c0 -10 -7 -54 -15 -98 -17 -87 -30 -105
-80 -105 -17 0 -85 -7 -150 -15 -149 -18 -266 -31 -415 -45 -63 -6 -134 -14
-157 -16 -36 -5 -43 -3 -43 11 0 41 23 212 31 226 11 22 153 37 419 45 113 4
207 8 209 10 2 2 49 4 103 4 87 0 98 -2 98 -17z m-22 -263 c2 -20 1 -22 -8
-10 -8 12 -10 9 -8 -15 1 -16 -2 -40 -6 -52 -6 -20 -9 -20 -34 -8 -52 26 -157
65 -175 65 -10 0 -25 7 -34 15 -13 14 -11 15 28 9 26 -5 40 -3 36 3 -3 5 5 8
21 6 15 -2 54 0 87 6 80 12 90 10 93 -19z m-500 -83 c4 -61 -21 -147 -54 -186
-38 -46 -124 -74 -206 -68 -139 9 -203 92 -167 220 5 20 11 37 12 38 7 4 385
47 397 45 11 -1 16 -15 18 -49z m217 29 c106 -25 163 -44 214 -70 27 -14 31
-22 31 -55 0 -46 -8 -71 -22 -71 -6 0 -40 -15 -77 -33 -174 -89 -439 -168
-611 -182 -85 -8 -102 2 -113 63 -7 37 -4 38 72 21 93 -20 205 15 272 83 43
45 60 97 62 196 l2 72 35 0 c19 0 80 -11 135 -24z m225 -230 c0 -10 -45 -82
-64 -104 l-21 -24 -6 24 c-15 52 -10 67 29 87 35 19 62 26 62 17z m-116 -62
c15 -38 6 -83 -20 -103 -15 -12 -31 -21 -35 -21 -5 0 -9 26 -9 58 0 51 3 60
23 70 30 15 34 14 41 -4z m-96 -86 l-3 -63 -65 -22 c-74 -26 -80 -22 -80 47
l0 45 68 27 c37 15 71 27 75 27 4 1 7 -27 5 -61z m-170 -64 l-3 -49 -92 -3
c-92 -3 -92 -3 -99 23 -9 35 1 55 28 56 13 0 52 8 88 18 36 10 69 15 73 11 5
-4 7 -29 5 -56z m-661 18 c-23 -25 -21 -39 2 -18 20 19 38 6 25 -16 -5 -9 -2
-8 9 1 15 12 17 12 11 -3 -3 -9 1 -27 10 -41 19 -29 20 -39 4 -29 -16 10 -110
5 -123 -6 -7 -6 -11 2 -10 23 0 20 5 31 13 30 6 -2 12 1 12 6 0 11 49 71 57
71 4 0 -1 -8 -10 -18z m443 -32 c0 -16 -2 -30 -5 -30 -2 0 -30 10 -62 22 l-58
22 35 7 c78 14 90 12 90 -21z"/>
<path d="M358 776 c-16 -6 -44 -27 -64 -46 -33 -33 -36 -34 -46 -16 -50 89
-131 81 -193 -19 -24 -39 -30 -61 -33 -121 -4 -62 0 -81 21 -128 29 -62 114
-152 153 -162 42 -11 143 47 212 121 134 143 169 319 72 367 -40 20 -83 22
-122 4z m113 -47 c19 -19 21 -30 16 -80 -6 -74 -45 -146 -117 -220 -55 -57
-123 -99 -158 -99 -30 0 -110 77 -133 128 -62 137 26 339 108 250 12 -13 28
-40 37 -61 9 -21 20 -37 25 -35 5 1 24 23 43 48 64 85 136 112 179 69z"/>
</g>
</svg>
