<?xml version="1.0" standalone="no"?>
<!DOCTYPE svg PUBLIC "-//W3C//DTD SVG 20010904//EN"
 "http://www.w3.org/TR/2001/REC-SVG-20010904/DTD/svg10.dtd">
<svg version="1.0" xmlns="http://www.w3.org/2000/svg"
 width="711.000000pt" height="433.000000pt" viewBox="0 0 711.000000 433.000000"
 preserveAspectRatio="xMidYMid meet">

<g transform="translate(0.000000,433.000000) scale(0.100000,-0.100000)"
fill="#000000" stroke="none">
<path d="M4675 2532 l-40 -7 -6 -180 c-4 -99 -10 -241 -14 -316 l-8 -137 -51
-6 c-28 -3 -73 -6 -99 -6 -54 0 -63 -22 -11 -28 16 -2 32 -9 35 -14 4 -6 5
-51 2 -100 -5 -81 -9 -94 -40 -140 -18 -28 -32 -56 -30 -62 5 -13 147 -10 161
4 5 5 -3 28 -22 57 -41 66 -45 83 -37 168 8 84 29 102 38 33 3 -22 14 -53 25
-68 11 -15 26 -46 33 -69 25 -82 125 -127 268 -119 98 6 163 33 219 90 26 28
35 49 47 112 8 43 15 95 15 117 0 38 1 39 40 45 31 5 40 11 40 26 0 18 -5 19
-34 14 -42 -8 -44 -4 -34 87 10 99 -2 454 -16 466 -32 26 -380 50 -481 33z
m285 -22 c130 -13 177 -27 184 -54 7 -27 7 -315 0 -343 -6 -22 -41 -26 -393
-36 l-104 -3 7 203 c4 112 9 210 12 218 9 23 149 30 294 15z m167 -462 c5 -7
8 -34 5 -61 -3 -38 -8 -48 -26 -52 -39 -8 -320 -35 -391 -38 l-70 -2 2 68 c0
38 4 71 7 75 9 8 181 18 337 20 91 2 129 -2 136 -10z m-287 -231 c0 -83 -46
-127 -132 -127 -71 0 -118 50 -118 124 0 29 4 37 23 41 26 6 91 11 170 13 l57
2 0 -53z m170 25 l105 -27 0 -34 c0 -29 -5 -37 -37 -53 -128 -67 -379 -127
-412 -99 -29 24 -20 43 17 36 43 -8 115 11 146 38 31 29 51 77 51 127 0 26 4
40 13 39 6 0 59 -13 117 -27z m90 -151 c0 -5 -7 -14 -15 -21 -12 -10 -15 -10
-15 2 0 8 3 18 7 21 9 10 23 9 23 -2z m-52 -35 c4 -20 -16 -48 -29 -40 -11 6
-12 48 -2 58 11 10 28 1 31 -18z m-60 -29 c3 -21 -2 -29 -23 -37 -44 -17 -55
-13 -55 19 0 23 6 32 28 39 37 14 46 10 50 -21z m-100 -35 c3 -22 1 -23 -50
-20 -40 2 -54 7 -56 20 -3 18 22 27 73 24 23 -1 31 -6 33 -24z m-128 -2 c0 -5
-6 -10 -14 -10 -8 0 -18 5 -21 10 -3 6 3 10 14 10 12 0 21 -4 21 -10z"/>
<path d="M4100 2293 c1 -15 39 -58 45 -51 8 8 -24 58 -36 58 -5 0 -9 -3 -9 -7z"/>
<path d="M3945 2271 c-3 -6 -1 -20 6 -32 6 -12 11 -61 10 -113 -1 -98 7 -123
34 -112 15 5 17 16 13 70 -3 38 -1 69 5 75 7 7 6 15 -3 26 -7 9 -16 33 -19 53
-6 36 -32 55 -46 33z"/>
<path d="M4087 2244 c15 -20 29 -32 31 -26 5 16 -28 62 -45 62 -10 0 -6 -11
14 -36z"/>
<path d="M3267 2234 c-4 -4 -7 -20 -7 -36 0 -25 -3 -28 -35 -28 -28 0 -35 -4
-35 -19 0 -17 7 -18 63 -16 34 1 76 10 92 19 17 9 36 16 43 16 8 0 12 6 9 13
-3 7 -20 11 -49 10 -40 -2 -44 0 -44 19 1 22 -23 36 -37 22z"/>
<path d="M2920 2189 c0 -11 -10 -29 -22 -39 -22 -17 -22 -19 -5 -26 28 -11 68
34 56 64 -11 28 -29 29 -29 1z"/>
<path d="M3745 2172 c8 -36 -22 -100 -60 -130 -33 -26 -32 -44 1 -40 45 5 82
62 86 133 3 51 0 60 -15 63 -16 3 -18 -1 -12 -26z"/>
<path d="M2980 2172 c0 -5 10 -12 22 -15 18 -5 19 -8 9 -21 -7 -9 -10 -24 -7
-33 5 -13 0 -11 -18 6 -28 26 -28 26 -45 -6 -6 -13 -26 -26 -44 -31 -21 -6
-32 -15 -33 -28 -1 -10 -2 -35 -3 -55 -1 -28 -7 -38 -27 -47 -46 -21 -16 -31
49 -16 34 8 102 16 151 17 58 1 91 6 93 14 2 6 -8 13 -23 15 -26 3 -37 14 -48
51 -4 14 -17 17 -67 17 -61 0 -62 0 -44 20 22 24 38 25 70 4 25 -17 100 -16
100 1 0 6 -16 11 -35 13 -43 4 -57 16 -41 36 7 8 11 25 9 38 -2 18 -10 24 -35
26 -18 2 -33 -1 -33 -6z m-65 -182 c0 -13 -6 -25 -12 -27 -9 -3 -13 6 -13 27
0 21 4 30 13 28 6 -3 12 -15 12 -28z m125 5 c0 -8 -7 -15 -15 -15 -16 0 -20
12 -8 23 11 12 23 8 23 -8z m-57 -10 c1 -5 -6 -11 -15 -13 -11 -2 -18 3 -18
13 0 17 30 18 33 0z"/>
<path d="M3649 2145 c17 -37 41 -47 41 -17 0 20 -29 52 -47 52 -6 0 -4 -14 6
-35z"/>
<path d="M4035 2170 c-6 -9 69 -60 90 -60 19 0 19 14 -1 34 -8 9 -16 16 -17
16 -1 0 -17 4 -34 9 -18 5 -35 6 -38 1z"/>
<path d="M2595 2156 c-40 -13 -62 -46 -31 -46 9 0 16 -6 16 -14 0 -8 7 -17 16
-20 15 -6 15 -8 -1 -26 -10 -11 -24 -20 -30 -20 -7 0 -18 -7 -25 -15 -10 -12
-9 -16 6 -22 11 -3 23 -12 27 -20 5 -8 17 -11 33 -7 37 10 31 -21 -8 -32 -17
-5 -34 -16 -36 -23 -4 -11 0 -12 14 -6 11 4 54 11 96 14 101 8 118 25 33 33
-36 4 -41 31 -7 36 29 4 29 22 -1 22 -13 0 -28 5 -35 12 -9 9 -17 7 -35 -10
-37 -35 -56 -26 -20 9 l31 31 46 -17 c45 -17 76 -15 76 5 0 5 -8 10 -19 10
-10 0 -32 5 -49 11 l-30 10 20 35 c16 28 18 37 8 49 -15 18 -40 18 -95 1z m61
-27 c3 -6 -1 -18 -10 -27 -14 -14 -17 -14 -36 3 -16 14 -17 20 -8 27 18 11 46
10 54 -3z"/>
<path d="M2820 2155 c0 -18 24 -30 40 -20 8 5 8 11 -1 21 -15 19 -39 18 -39
-1z"/>
<path d="M3570 2165 c0 -15 42 -85 50 -85 19 0 10 47 -13 68 -23 21 -37 28
-37 17z"/>
<path d="M2478 2144 c-4 -3 -4 -21 -1 -40 4 -22 2 -34 -6 -34 -6 0 -11 12 -11
26 0 16 -5 24 -12 22 -7 -3 -13 -10 -12 -16 1 -7 2 -40 3 -74 l2 -63 18 23
c11 12 22 22 25 22 3 0 6 -29 6 -65 0 -65 10 -82 30 -46 6 13 7 36 0 72 -8 43
-7 55 5 69 14 15 14 19 1 29 -8 7 -16 26 -18 43 -3 30 -17 45 -30 32z"/>
<path d="M3360 2123 c-45 -4 -110 -30 -110 -45 0 -5 14 -8 30 -8 27 0 33 -6
55 -55 13 -30 29 -55 35 -55 19 0 23 30 10 71 -7 21 -11 41 -8 44 4 4 44 11
81 14 4 1 7 7 7 15 0 12 -35 29 -50 24 -3 -1 -25 -3 -50 -5z"/>
<path d="M2827 2087 c-28 -24 -27 -37 4 -37 18 0 39 27 39 49 0 16 -12 13 -43
-12z"/>
<path d="M3187 2073 c-14 -13 -7 -33 11 -33 19 0 42 18 42 32 0 10 -44 11 -53
1z"/>
<path d="M4007 1839 c-24 -14 -57 -85 -57 -124 0 -63 80 -175 126 -175 44 0
142 90 170 155 44 106 -17 181 -109 136 -35 -17 -43 -18 -57 -7 -23 21 -53 26
-73 15z m58 -67 c21 -32 45 -42 45 -19 0 25 46 59 76 55 25 -3 29 -8 32 -40 4
-49 -27 -108 -81 -152 -58 -47 -80 -46 -113 4 -35 52 -43 127 -19 164 21 32
34 30 60 -12z"/>
</g>
</svg>
